<?xml version="1.0" encoding="UTF-8"?>
<svg width="128px" height="128px" viewBox="0 0 128 128" version="1.1" xmlns="http://www.w3.org/2000/svg" xmlns:xlink="http://www.w3.org/1999/xlink">
    <title>verify</title>
    <defs>
        <filter id="filter-1">
            <feColorMatrix in="SourceGraphic" type="matrix" values="0 0 0 0 0.149020 0 0 0 0 0.529412 0 0 0 0 0.796078 0 0 0 1.000000 0"></feColorMatrix>
        </filter>
    </defs>
    <g id="Why-Clinq" stroke="none" stroke-width="1" fill="none" fill-rule="evenodd">
        <g id="Desktop-HD" transform="translate(-763.000000, -2066.000000)">
            <g id="Return-Optimization" transform="translate(113.000000, 1228.000000)">
                <g id="Second-Part" transform="translate(63.000000, 838.000000)">
                    <g filter="url(#filter-1)" id="verify">
                        <g transform="translate(587.000000, 0.000000)">
                            <path d="M93.5,128 C74.4772308,128 59,112.522769 59,93.5 C59,74.4772308 74.4772308,59 93.5,59 C112.522769,59 128,74.4772308 128,93.5 C128,112.522769 112.522769,128 93.5,128 Z M93.5,64.3076923 C77.4017692,64.3076923 64.3076923,77.4070769 64.3076923,93.5 C64.3076923,109.592923 77.4017692,122.692308 93.5,122.692308 C109.598231,122.692308 122.692308,109.592923 122.692308,93.5 C122.692308,77.4070769 109.598231,64.3076923 93.5,64.3076923 Z" id="Shape" fill="#000000" fill-rule="nonzero"></path>
                            <path d="M87.4626563,107 C86.7518992,107 86.0626801,106.713811 85.5565348,106.211632 L74.7874866,95.4120642 C73.7375045,94.3591064 73.7375045,92.647375 74.7874866,91.5944172 C75.8374688,90.5414594 77.544363,90.5414594 78.5943452,91.5944172 L87.3280432,100.352866 L104.278525,80.9244446 C105.258508,79.7958898 106.960018,79.6878942 108.079999,80.6706548 C109.19998,81.6534154 109.313055,83.3543473 108.333072,84.4775023 L89.4872374,106.076637 C88.9972457,106.638214 88.291873,106.973001 87.5488087,107 C87.5218861,107 87.489579,107 87.4626563,107 L87.4626563,107 Z" id="Path" fill="#000000" fill-rule="nonzero"></path>
                            <path d="M50.35,113 L13.25,113 C5.9466,113 0,106.959056 0,99.5277778 L0,29.4722222 C0,22.0409444 5.9466,16 13.25,16 L23.85,16 C25.3128,16 26.5,17.2071111 26.5,18.6944444 C26.5,20.1817778 25.3128,21.3888889 23.85,21.3888889 L13.25,21.3888889 C8.8669,21.3888889 5.3,25.0156111 5.3,29.4722222 L5.3,99.5277778 C5.3,103.984389 8.8669,107.611111 13.25,107.611111 L50.35,107.611111 C51.8128,107.611111 53,108.818222 53,110.305556 C53,111.792889 51.8128,113 50.35,113 Z" id="Path" fill="#000000" fill-rule="nonzero"></path>
                            <path d="M89.3,48 C87.8096,48 86.6,46.8053333 86.6,45.3333333 L86.6,29.3333333 C86.6,24.9226667 82.9658,21.3333333 78.5,21.3333333 L67.7,21.3333333 C66.2096,21.3333333 65,20.1386667 65,18.6666667 C65,17.1946667 66.2096,16 67.7,16 L78.5,16 C85.9412,16 92,21.9786667 92,29.3333333 L92,45.3333333 C92,46.8053333 90.7904,48 89.3,48 Z" id="Path" fill="#000000" fill-rule="nonzero"></path>
                            <path d="M62,32 L30,32 C25.5893333,32 22,28.4106667 22,24 L22,13.3333333 C22,11.8613333 23.1946667,10.6666667 24.6666667,10.6666667 L32.9333333,10.6666667 C34.176,4.58666667 39.5573333,0 46,0 C52.4426667,0 57.824,4.58666667 59.0666667,10.6666667 L67.3333333,10.6666667 C68.8053333,10.6666667 70,11.8613333 70,13.3333333 L70,24 C70,28.4106667 66.4106667,32 62,32 Z M27.3333333,16 L27.3333333,24 C27.3333333,25.4666667 28.528,26.6666667 30,26.6666667 L62,26.6666667 C63.472,26.6666667 64.6666667,25.4666667 64.6666667,24 L64.6666667,16 L56.6666667,16 C55.1946667,16 54,14.8053333 54,13.3333333 C54,8.92266667 50.4106667,5.33333333 46,5.33333333 C41.5893333,5.33333333 38,8.92266667 38,13.3333333 C38,14.8053333 36.8053333,16 35.3333333,16 L27.3333333,16 Z" id="Shape" fill="#000000" fill-rule="nonzero"></path>
                            <path d="M71.3181818,48 L17.6818182,48 C16.2014545,48 15,46.88 15,45.5 C15,44.12 16.2014545,43 17.6818182,43 L71.3181818,43 C72.7985455,43 74,44.12 74,45.5 C74,46.88 72.7985455,48 71.3181818,48 Z" id="Path" fill="#000000" fill-rule="nonzero"></path>
                            <path d="M55.375,63 L18.625,63 C17.176,63 16,61.88 16,60.5 C16,59.12 17.176,58 18.625,58 L55.375,58 C56.824,58 58,59.12 58,60.5 C58,61.88 56.824,63 55.375,63 Z" id="Path" fill="#000000" fill-rule="nonzero"></path>
                            <path d="M45.3333333,81 L18.6666667,81 C17.1946667,81 16,79.88 16,78.5 C16,77.12 17.1946667,76 18.6666667,76 L45.3333333,76 C46.8053333,76 48,77.12 48,78.5 C48,79.88 46.8053333,81 45.3333333,81 Z" id="Path" fill="#000000" fill-rule="nonzero"></path>
                        </g>
                    </g>
                </g>
            </g>
        </g>
    </g>
</svg>