<?xml version="1.0" encoding="UTF-8"?>
<svg width="629px" height="288px" viewBox="0 0 629 288" version="1.1" xmlns="http://www.w3.org/2000/svg" xmlns:xlink="http://www.w3.org/1999/xlink">
    <title>Logistics Vector Bar Chart</title>
    <defs>
        <linearGradient x1="50%" y1="0%" x2="50%" y2="99.6964738%" id="linearGradient-1">
            <stop stop-color="#A0E0F8" offset="0%"></stop>
            <stop stop-color="#57C1F2" offset="100%"></stop>
        </linearGradient>
        <linearGradient x1="50%" y1="0%" x2="50%" y2="99.6964738%" id="linearGradient-2">
            <stop stop-color="#A0E0F8" offset="0%"></stop>
            <stop stop-color="#57C1F2" offset="100%"></stop>
        </linearGradient>
        <linearGradient x1="50%" y1="0%" x2="50%" y2="99.6964738%" id="linearGradient-3">
            <stop stop-color="#A0E0F8" offset="0%"></stop>
            <stop stop-color="#68F9DD" offset="100%"></stop>
        </linearGradient>
        <linearGradient x1="50%" y1="0.303526182%" x2="50%" y2="100%" id="linearGradient-4">
            <stop stop-color="#A0E0F8" offset="0%"></stop>
            <stop stop-color="#68F9DD" offset="100%"></stop>
        </linearGradient>
    </defs>
    <g id="Why-Clinq" stroke="none" stroke-width="1" fill="none" fill-rule="evenodd">
        <g id="Desktop-HD" transform="translate(-767.000000, -3075.000000)">
            <g id="Logistics-Optimization" transform="translate(112.000000, 3039.000000)">
                <g id="Logistics-Vector-Bar-Chart" transform="translate(655.000000, 36.000000)">
                    <path d="M264.737954,245.3 C210.637383,245.3 156.549966,244.473481 102.460971,243.135038 C78.1091905,242.47124 53.9510247,239.554663 30.0490826,238.851606 C14.3478794,238.389788 8.31373078,231.778157 14.4799373,226.43988 C16.8590828,224.380299 21.0533659,222.510301 27.209576,221.256059 C57.0530685,215.175982 90.9298492,216.287133 122.059722,215.276197 C158.618697,214.08911 195.23239,213.455273 231.864497,213.403616 C233.52811,213.401033 235.185409,213.4 236.849022,213.4 C308.449097,213.4 380.095997,215.586142 451.419855,219.954292 C459.973099,220.478098 471.244841,221.301001 479.115698,223.595106 C482.551306,224.59726 485.38713,226.745175 485.076715,229.051162 C484.661075,232.145957 479.28932,233.924522 474.548917,235.018109 C443.90729,242.084843 414.463128,239.506105 383.240657,242.502235 C351.603598,245.537624 318.710149,245.119199 286.555381,245.254541 C279.279573,245.285019 272.012709,245.3 264.737954,245.3" id="Fill-3" fill="#F2F2F2"></path>
                    <path d="M432.3,278.3 C431.612608,274.524395 429.573347,272.147935 427.515338,271.318367 C427.448682,271.29122 427.382026,271.265638 427.31537,271.241623 C427.382026,271.265638 427.448682,271.29122 427.515338,271.318367 C429.573347,272.147935 431.612608,274.524395 432.3,278.3 M427.29454,271.234314 C426.363437,270.898624 425.417753,270.804129 424.467382,270.804129 C423.387344,270.804129 422.301578,270.925771 421.222582,270.954485 C421.053858,270.959184 420.885656,270.961272 420.717453,270.961272 C413.511299,270.961272 406.442102,266.934029 399.236468,266.296583 C398.481379,266.229758 397.726811,266.2 396.972242,266.2 C396.926937,266.2 396.881632,266.200522 396.836326,266.200522 C396.881632,266.200522 396.926937,266.2 396.972242,266.2 C397.726811,266.2 398.481379,266.229758 399.236468,266.296583 C406.441581,266.934029 413.511299,270.961272 420.716932,270.961272 C420.885656,270.961272 421.053858,270.959184 421.222582,270.954485 C422.301057,270.925771 423.387344,270.804129 424.466861,270.804129 C425.417753,270.804129 426.362916,270.898624 427.29454,271.234314 M343.2,268.473612 L343.2,268.473612 C346.856715,268.184385 350.517074,268.098244 354.177955,268.098244 C350.517074,268.098244 346.856715,268.184385 343.2,268.473612 M370.136894,268.279402 C367.605523,268.279402 365.07259,268.238681 362.540177,268.195349 C365.072069,268.238159 367.605002,268.279402 370.135853,268.279402 C375.226195,268.279402 380.312372,268.113906 385.391258,267.464974 C388.230393,267.102136 391.071611,266.58842 393.91335,266.342525 C391.071611,266.58842 388.230393,267.102136 385.391258,267.464974 C380.312893,268.113906 375.226716,268.279402 370.136894,268.279402" id="Fill-4" fill="#DEDEDE"></path>
                    <path d="M464.862617,0.634947211 C409.767106,-0.660424252 354.671594,0.278258368 299.576082,1.21641334 C244.480045,2.15509596 189.384533,3.09377858 134.289021,1.79840712 C131.450204,70.615082 134.586131,128.550637 134.586131,195.119539 C244.569808,197.282361 355.008598,202.47862 464.862617,195.831333 C466.377563,136.253216 463.348197,60.2130645 464.862617,0.634947211 Z" id="Fill-5" fill="#EBEBEB"></path>
                    <path d="M137.06712,9.17257689 C135.853916,8.3309971 134.431107,9.17784995 133.1,9.18048648 C133.196828,70.5773185 133.475353,131.973623 133.572181,193.369928 C135.243896,193.973693 136.147249,193.198554 137.5,193.195917 C137.395197,131.915092 137.35077,70.3806335 137.06712,9.17257689" id="Fill-6" fill="#BFBFBF"></path>
                    <path d="M127.6,201.496308 C127.782131,199.798359 127.790828,198.077282 127.626603,196.377077 C130.903431,195.872205 134.173095,195.312615 137.434574,194.7 C137.554801,197.265538 137.509269,199.841231 137.298487,202.4 C134.065658,202.098769 130.832829,201.797538 127.6,201.496308" id="Fill-7" fill="#1A1A1A"></path>
                    <path d="M9.29298319,121.727746 C7.91196405,124.416435 7.02135618,127.159096 5.74051731,129.889821 C5.00481297,131.458093 4.1913072,134.035035 3.3,137.620647 L3.42483196,196.9 L128.7,196.9 L128.7,77 C89.603119,79.4123028 60.644027,81.0637149 41.8227239,81.9542364 C39.3864026,82.0694437 36.8546216,82.2100796 34.7156941,83.3481411 C31.4957638,85.0612012 29.4974034,89.0244366 27.4680973,91.8734824 C24.9483799,95.4111773 22.5251712,99.0137412 20.2016183,102.676504 C18.1098961,105.972886 16.0994721,109.318569 14.1713953,112.707843 C12.4809188,115.680918 10.8544317,118.688764 9.29298319,121.727746 Z" id="Fill-8" fill="#2687CB"></path>
                    <path d="M466.821139,204.365317 C468.348577,200.085989 466.821139,195.049054 466.821139,190.345626 C355.720937,190.15946 244.621265,190.615417 133.521063,190.429251 C132.422324,196.333301 133.821152,199.532966 133.821152,204.314047 C244.711768,204.469351 356.061779,204.842679 466.821139,204.365317" id="Fill-9" fill="#1A315D"></path>
                    <path d="M460.9,4.78257839 C461.004897,66.4966571 461.303733,128.210736 461.408631,189.924815 C462.60194,190.329726 464.632397,190.406893 467.5,190.156316 C466.135114,107.584965 465.350822,45.7910873 465.147126,4.77468367 C463.848716,3.92836969 462.325263,4.77994682 460.9,4.78257839 Z" id="Fill-10" fill="#CCCCCC"></path>
                    <path d="M0,189.121589 C5.04443258,188.117019 10.322577,187.849406 15.4877834,188.336114 C15.6495736,189.391245 15.8108386,190.446375 15.9726289,191.501506 C54.162483,191.923864 91.0412058,192.331923 129.23106,192.754792 C130.283747,197.450276 129.637637,201.081947 129.185359,205.23863 C89.7873313,205.757002 50.3887779,206.275885 10.9907497,206.794258 C7.99395297,206.834093 4.54592949,206.714586 2.68481627,204.861724 C1.67888011,203.86124 1.36580546,202.544625 1.12417067,201.282146 C0.353040493,197.25927 -0.0230693193,193.189918 0,189.121589" id="Fill-11" fill="#1A315D"></path>
                    <path d="M69.5232407,205.282495 C69.9022674,208.425736 70.5046769,211.539864 71.3232298,214.591451 C71.9721773,217.010075 72.7959011,219.461049 74.4004303,221.334594 C76.676659,223.991523 80.1711508,225.093005 83.5332677,225.73028 C85.9672087,226.191792 88.4321751,226.473228 90.9043807,226.572432 C92.9184449,226.653304 94.9945598,226.601007 96.8545313,225.791204 C98.7279471,224.974931 100.22699,223.459382 101.663982,221.963781 C105.162611,218.323983 108.800854,214.078719 108.898066,208.926606 C108.952361,206.041617 107.856131,203.26338 106.507561,200.743395 C103.453112,195.034879 98.6452128,189.953934 92.5368327,188.482056 C91.1148362,188.139696 89.6395794,187.998978 88.1901771,188.177975 C86.6864804,188.363982 85.2427661,188.888035 83.8135303,189.408315 C81.6939798,190.180377 79.5744294,190.9519 77.4543618,191.723423 C75.136766,192.567192 72.6976541,193.497225 71.1422484,195.47806 C69.0687189,198.118815 69.1147399,201.896096 69.5232407,205.282495" id="Fill-12" fill="#E6E6E6"></path>
                    <path d="M103.029426,212.272659 C101.491309,215.39728 98.6164583,217.34515 95.6464662,218.206467 C92.676474,219.067262 89.5764555,218.973936 86.5192506,218.875395 C84.7966657,218.819608 83.0317958,218.754435 81.4302517,218.001044 C78.172193,216.468712 76.2651399,212.417602 75.3205989,208.425407 C74.50027,204.959805 74.364958,200.761145 76.5526778,198.25905 C77.8841265,196.735582 79.8001653,196.187613 81.6374482,195.900334 C87.8110571,194.933177 94.0602504,196.218374 100.192631,197.499923 C101.684235,197.811186 103.362949,198.27052 104.122493,199.820057 C104.574414,200.740811 104.593442,201.860732 104.587099,202.924865 C104.569128,206.138642 104.396288,209.495276 103.029426,212.272659 Z M113.255523,196.052576 C112.687847,194.229316 111.915617,192.478006 110.84845,191.000941 C108.40702,187.623451 104.667441,185.981109 101.000275,185.00926 C93.8884676,183.124477 86.3960955,183.277241 79.3434873,185.450867 C74.3707722,186.983199 69.3837859,189.733991 66.453436,194.724625 C63.171592,200.315366 63.0833221,207.985364 65.3682973,214.231478 C66.5073493,217.346714 68.1897635,220.18197 70.2791706,222.508881 C72.5419463,225.028182 75.2603428,226.935384 78.1341366,228.335285 C86.8041457,232.558451 97.3457943,231.887436 104.962379,225.42078 C112.579491,218.954123 116.496667,206.456161 113.255523,196.052576 L113.255523,196.052576 Z" id="Left-Tire" fill="#1A315D"></path>
                    <path d="M94.3919472,201.846153 C92.517204,200.468679 90.1303731,200.187721 87.8570968,200.200403 C85.7907302,200.211134 83.7249095,200.430632 81.6962124,200.85402 C81.2267077,200.952063 80.748468,201.065227 80.3417459,201.335941 C79.1062934,202.157841 79.0031115,204.071867 79.4229361,205.56348 C80.2533043,208.516465 82.5975522,210.866561 85.341971,211.801136 C88.0863898,212.735711 91.1610997,212.314274 93.7182626,210.895339 C94.8407064,210.272452 95.9156538,209.412018 96.4517627,208.185754 C97.4153392,205.981015 96.2661445,203.223627 94.3919472,201.846153" id="Fill-14" fill="#1A315D"></path>
                    <path d="M362.123243,205.282495 C362.502792,208.425736 363.104692,211.540403 363.923254,214.591451 C364.571693,217.010075 365.395427,219.461049 367.000492,221.334594 C369.276749,223.992062 372.771283,225.093005 376.132924,225.73028 C378.566894,226.191792 381.032408,226.473228 383.504644,226.572432 C385.518215,226.653304 387.594872,226.601007 389.454349,225.791204 C391.327788,224.975471 392.827366,223.459382 394.264376,221.96432 C397.763047,218.323983 401.400817,214.078719 401.498031,208.926606 C401.552843,206.041617 400.456083,203.26338 399.108014,200.743395 C396.053011,195.035418 391.24557,189.953934 385.137115,188.482056 C383.715102,188.139696 382.23931,187.998978 380.790407,188.177975 C379.286692,188.363982 377.843477,188.888035 376.413707,189.408315 C374.293614,190.180377 372.174037,190.9519 370.054461,191.723423 C367.736837,192.567731 365.297695,193.497225 363.742271,195.47806 C361.668716,198.118815 361.714738,201.896096 362.123243,205.282495" id="Fill-15" fill="#E6E6E6"></path>
                    <path d="M395.62967,212.272659 C394.091548,215.397801 391.216157,217.34515 388.246153,218.206467 C385.276678,219.067262 382.176118,218.973936 379.11943,218.875395 C377.39631,218.819608 375.631433,218.754435 374.029882,218.001044 C370.771811,216.469234 368.865279,212.418123 367.920205,208.425929 C367.100402,204.959805 366.964561,200.761666 369.152818,198.25905 C370.484272,196.736103 372.400318,196.188135 374.23708,195.900334 C380.410713,194.933698 386.659931,196.218374 392.792865,197.499923 C394.284474,197.811186 395.962666,198.271041 396.722742,199.820057 C397.174136,200.740811 397.193164,201.860732 397.18735,202.924865 C397.169379,206.138642 396.996538,209.495276 395.62967,212.272659 Z M405.855808,196.052576 C405.288129,194.229316 404.515897,192.478527 403.448196,191.001462 C401.007286,187.623451 397.267163,185.981109 393.600511,185.00926 C386.488147,183.124477 378.996274,183.277241 371.943638,185.450867 C366.970903,186.983199 361.983369,189.733991 359.053536,194.724625 C355.771679,200.315366 355.683409,207.985364 357.967864,214.231999 C359.107449,217.346714 360.78987,220.18197 362.879286,222.508881 C365.14207,225.028182 367.859949,226.935906 370.733754,228.335285 C379.404326,232.558451 389.945488,231.887436 397.562631,225.42078 C405.179245,218.954123 409.096437,206.456161 405.855808,196.052576 L405.855808,196.052576 Z" id="Right-Tire" fill="#112242"></path>
                    <path d="M380.457343,200.200402 C378.390468,200.211621 376.32523,200.430632 374.296024,200.85402 C373.826528,200.952062 373.348843,201.065714 372.942128,201.335941 C371.706698,202.15784 371.602972,204.071866 372.022789,205.56348 C372.853688,208.516464 375.197348,210.867048 377.942263,211.801136 C380.686086,212.735711 383.761286,212.314274 386.317857,210.895339 C387.440826,210.272452 388.515754,209.412506 389.051853,208.185754 C390.015412,205.981014 388.865692,203.223627 386.991529,201.846153 C385.117366,200.469166 382.730578,200.18772 380.457343,200.200402 Z" id="Fill-17" fill="#333333"></path>
                    <g id="Bumper-Deco" transform="translate(178.200000, 189.200000)">
                        <path d="M13.158236,0.0427741062 C12.9163573,0.0454813281 12.6419522,0.0660562147 12.4870079,0.287506967 C12.3616332,0.465642169 12.3563107,0.719579584 12.3563107,0.951859224 C12.3580849,5.8838761 12.3604504,10.8153515 12.3634074,15.7473684 C13.9501076,15.6661518 15.5297112,15.3624015 17.0572724,14.8431563 C17.1513035,9.89543753 17.1164115,4.9444701 16.9531877,0 C15.6882038,0.0140775539 14.4232199,0.0286965523 13.158236,0.0427741062" id="Fill-18" fill="#112242"></path>
                        <path d="M7.45535107,0.042775577 C7.21347412,0.045482892 6.93907093,0.065517023 6.78412775,0.28697539 C6.65875388,0.46565818 6.65284002,0.719604327 6.65339806,0.951891954 C6.65520556,5.88407842 6.65757111,10.8157234 6.65993665,15.7473684 C8.24721717,15.6666904 9.82680966,15.3629297 11.3543602,14.8436667 C11.4483906,9.89577778 11.4134988,4.94464011 11.2502762,0 C9.98530116,0.014078038 8.72032611,0.028697539 7.45535107,0.042775577" id="Fill-19" fill="#112242"></path>
                        <path d="M0.801925756,0.0427741062 C0.56005643,0.0454813281 0.28566189,0.0660562147 0.130723593,0.287506967 C0.00594504174,0.465642169 -0.000560001241,0.719579584 0,0.951859224 C0.00239683648,5.8838761 0.00476230665,10.8153515 0.00712777683,15.7473684 C1.59435826,15.6661518 3.17330961,15.3624015 4.70140334,14.8431563 C4.79483941,9.89543753 4.75994873,4.9444701 4.59673128,0 C3.33179611,0.0140775539 2.06686093,0.0286965523 0.801925756,0.0427741062" id="Fill-20" fill="#112242"></path>
                        <path d="M251.729464,0.042775577 C251.488184,0.045482892 251.213788,0.065517023 251.058848,0.28697539 C250.933478,0.46565818 250.928155,0.719604327 250.928155,0.951891954 C250.929929,5.88407842 250.932886,10.8157234 250.935252,15.7473684 C252.521901,15.6666904 254.101455,15.3623882 255.629558,14.8431252 C255.722995,9.89577778 255.688104,4.94464011 255.524886,0 C254.259942,0.014078038 252.994999,0.028697539 251.729464,0.042775577" id="Fill-21" fill="#112242"></path>
                        <path d="M246.027068,0.042775577 C245.785811,0.045482892 245.51144,0.065517023 245.356515,0.28697539 C245.231156,0.46565818 245.225243,0.719062864 245.225243,0.951891954 C245.227608,5.88353696 245.229973,10.8157234 245.23293,15.7473684 C246.819433,15.6666904 248.39884,15.3623882 249.926211,14.8431252 C250.02023,9.89577778 249.985343,4.94464011 249.822139,0 C248.557313,0.014078038 247.292486,0.028156076 246.027068,0.042775577" id="Fill-22" fill="#112242"></path>
                        <path d="M237.4728,0.042775577 C237.23093,0.045482892 236.956536,0.065517023 236.801597,0.28697539 C236.676819,0.46565818 236.670314,0.719604327 236.670874,0.951891954 C236.673271,5.88407842 236.675636,10.8157234 236.678002,15.7473684 C238.265232,15.6666904 239.844183,15.3623882 241.372277,14.8431252 C241.465713,9.89577778 241.430823,4.94464011 241.267605,0 C240.00267,0.014078038 238.737735,0.028697539 237.4728,0.042775577" id="Fill-23" fill="#1A1A1A"></path>
                        <path d="M293.205325,17.3339697 C293.672362,16.9901041 293.704946,16.3605122 293.699515,15.8114205 C293.639778,10.8497189 293.585471,5.88801736 293.525734,0.926315789 C289.662366,1.41378992 285.800085,1.90176098 281.937803,2.38923511 C281.739584,7.44336297 281.541365,12.4979877 281.343689,17.5521156 C284.866555,17.5680169 288.389964,17.5839182 291.912829,17.5998195 C292.363574,17.6018072 292.853962,17.5918688 293.205325,17.3339697" id="Fill-25" fill="#F786B8"></path>
                    </g>
                    <path d="M48.4,77 C65.8195767,76.2217083 92.5862434,74.6412448 128.7,72.2586097 L128.7,40.7 C118.665963,43.3924104 111.768402,45.5930522 108.007317,47.3019253 C93.6370641,53.8302067 79.2673393,60.3590144 64.8970863,66.8878221 C59.0996565,69.5221887 53.1855071,72.2355073 48.4,77 Z" id="Fill-24" fill="#2687CB"></path>
                    <path d="M466.821139,8.67330216 C468.348577,6.36936445 466.821139,3.65729459 466.821139,1.12444338 C355.720937,1.02452501 244.621265,1.26982724 133.521063,1.16938021 C132.422324,4.3487931 133.821152,6.07172403 133.821152,8.64581139 C244.711768,8.7298697 356.061779,8.93076376 466.821139,8.67330216" id="Fill-26" fill="#1A315D"></path>
                    <path d="M343.94012,155.1 C275.35681,155.1 206.684595,155.042239 138.199659,155.011815 C138.199659,153.540886 136.841881,152.556298 137.90927,150.739683 C156.84767,150.749825 175.781335,150.753793 194.719734,150.753793 C229.697907,150.753793 264.681865,150.740124 299.660564,150.726896 C334.576134,150.713228 369.491178,150.7 404.406748,150.7 C423.408276,150.7 442.41033,150.703968 461.411857,150.71411 C461.411857,151.477793 461.82482,152.270578 462,153.042199 C462,153.411254 462,153.783836 462,154.152891 C461.910569,154.453162 461.729076,154.745496 461.411857,155.027688 C422.311427,155.08104 383.142608,155.1 343.94012,155.1" id="Fill-27" fill="#DDE1E1"></path>
                    <path d="M460.279435,152.9 C460.277235,152.168996 460.275035,151.431004 460.272835,150.7 C460.448835,151.446725 460.503835,152.183843 460.279435,152.9" id="Fill-28" fill="#CCCCCC"></path>
                    <path d="M4.38296396,152.9 C3.71938269,151.890877 2.45750798,150.991155 4.13144525,149.6 C4.21920922,149.6 4.30590291,149.6 4.39259659,149.6 C4.4054401,150.69577 4.40115893,151.796353 4.38296396,152.9" id="Fill-29" fill="#F0F0F0"></path>
                    <path d="M127.581316,155.094004 C86.4305874,155.071168 44.3769915,155.115318 3.3,155.094004 C3.3,154.836208 3.3,153.171358 3.3,150.099455 C27.3368247,150.110619 45.2401135,150.116202 57.0098663,150.116202 C70.973439,150.116202 84.9364888,150.113157 98.9005845,150.109604 C99.2295268,150.151725 99.5600379,150.179636 99.891072,150.205009 C99.891072,150.172024 99.891072,150.141575 99.891595,150.109097 C106.060788,150.107405 115.663589,149.937706 128.7,149.6 L128.7,155.094004" id="Fill-30" fill="#BFBFBF"></path>
                    <path d="M100.098839,150.25395 C99.3639578,150.19895 98.6302375,150.13845 97.9,150.04715 C98.6325594,150.04605 99.3674406,150.04605 100.1,150.04605 C100.098839,150.11645 100.098839,150.18245 100.098839,150.25395" id="Fill-32" fill="#8DA4B4"></path>
                    <path d="M86.8757309,136.976559 C86.0930081,137.170554 85.3070709,137.422197 84.6700707,137.889891 C84.0330704,138.357585 83.5626867,139.078426 83.6023318,139.835359 C83.6098322,139.982234 83.6403697,140.136127 83.7432326,140.247411 C83.8900266,140.406316 84.1386121,140.433386 84.3620176,140.448925 C86.6758982,140.61134 88.9929933,140.726133 91.3116956,140.794307 C91.7681499,140.807842 92.2487128,140.813857 92.6499854,140.610337 C93.5586082,140.14916 93.5645014,138.951101 93.4471733,137.989646 C93.3844912,137.475834 93.2810925,136.896354 92.8224952,136.608118 C92.5299787,136.423647 92.1565647,136.404598 91.8040448,136.401089 C90.1432368,136.383545 88.4808215,136.578041 86.8757309,136.976559" id="Fill-33" fill="#1A315D"></path>
                    <path d="M69.6697426,89.2331867 C59.1689233,89.414673 48.6670613,89.8047887 38.1824019,90.5701179 C36.0524203,90.7255255 33.835905,90.9235105 32.0160897,91.9703829 C29.8277239,93.229078 28.5781973,95.4947292 27.4600352,97.6587267 C23.5342176,105.253475 19.9091829,112.984471 16.5937932,120.830425 C15.7983082,122.713412 15.0210682,124.603317 14.2610307,126.499077 C13.6938697,127.914244 11.8453835,130.787156 12.1294853,132.299187 C12.6784013,135.22053 20.3689587,133.90542 23.0483774,133.901162 C41.8606079,133.872955 60.6712744,133.354575 79.4522275,132.346554 C80.1455402,132.309299 80.8784707,132.325265 81.6108799,132.341232 C84.4341741,132.402437 87.2454786,132.464174 87.7271484,129.479497 C88.4183759,125.194611 87.5864008,120.197618 87.5186334,115.856318 C87.3992585,108.218992 87.3940456,100.571555 87.1605087,92.9368904 C87.0510383,89.343888 85.8896093,89.1299365 82.2614469,89.1054545 C78.0656023,89.0777791 73.8645447,89.1608051 69.6697426,89.2331867" id="Fill-34" fill="#B1EAFF"></path>
                    <path d="M25.1668859,120.968678 C23.5060622,115.931028 23.3474196,110.760739 24.1138273,105.6 C21.5470998,110.638711 19.1045511,115.727825 16.8157216,120.872116 C15.9809334,122.749231 15.1647447,124.632713 14.3677025,126.522561 C13.7725193,127.933846 11.8332505,130.797268 12.1308421,132.305114 C12.7068788,135.217348 20.7774098,133.906339 23.5897598,133.902094 C26.7265065,133.89785 29.8632533,133.876097 33,133.846916 C29.8736471,129.850752 26.7565939,125.791982 25.1668859,120.968678" id="Fill-35" fill="#D4D6D6"></path>
                    <path d="M27.4549278,108.990724 C26.9496872,109.217535 26.6131508,109.84997 26.4841161,110.508251 C26.3555174,111.166533 26.4008539,111.856989 26.4470622,112.532677 C26.7051316,116.319376 26.9636369,120.106075 27.2221422,123.892774 C27.2805566,124.748328 27.3455098,125.632893 27.6720199,126.385591 C27.99853,127.138817 28.6615764,127.729054 29.3294181,127.575561 C29.8817389,127.448969 30.3058968,126.845544 30.5029363,126.179878 C30.6999757,125.513685 30.710438,124.786306 30.7182847,124.075278 C30.7435685,121.833535 30.7692883,119.591793 30.7945721,117.349522 C30.8237792,114.760705 30.7819302,111.913956 29.438836,109.961266 C28.9436218,109.241799 28.1650544,108.671605 27.4549278,108.990724" id="Fill-36" fill="#1A315D"></path>
                    <path d="M29.6548834,110.085581 C29.1496362,110.299062 28.8130953,110.894316 28.6844949,111.513983 C28.5554585,112.13313 28.6007956,112.782923 28.6470046,113.418691 C28.9050774,116.982943 29.1635861,120.546676 29.4220948,124.110408 C29.4805099,124.916027 29.5454641,125.748655 29.8719784,126.457143 C30.1984928,127.166149 30.8615481,127.721408 31.5293986,127.577009 C32.0817267,127.457543 32.5058903,126.889818 32.7029323,126.26288 C32.8999744,125.636461 32.9104368,124.951867 32.9182836,124.282855 C32.9435678,122.172457 32.9692878,120.062578 32.994572,117.952698 C33.0237796,115.516105 32.9819299,112.836423 31.638818,110.999239 C31.1435972,110.321397 30.3650195,109.784837 29.6548834,110.085581" id="Fill-37" fill="#F2F2F2"></path>
                    <path d="M28.1207699,117.705201 C21.2376468,118.72836 20.5780009,126.072589 20.999471,131.545868 C21.0452945,132.144614 21.9905384,132.158103 21.9670938,131.545868 C21.7619535,126.203856 21.8663885,119.983961 28.3237789,118.421723 C28.8123857,118.303427 28.5949903,117.634638 28.1207699,117.705201" id="Fill-38" fill="#1A315D"></path>
                    <path d="M39.6563758,126.5 C38.9248685,126.5 38.2332519,125.957757 37.8731584,125.285755 C37.4688618,124.53305 37.3885416,123.648477 37.3163072,122.792914 C37.1696824,121.051723 37.0225184,119.31106 36.8758935,117.570397 C37.2181979,117.436946 37.122784,116.987538 36.8176748,116.879406 C36.6640421,115.063841 36.5109485,113.248277 36.3583939,111.432184 C36.3007143,110.75649 36.2451909,110.066555 36.4042142,109.408268 C36.5632375,108.74998 36.9799325,108.117539 37.6041664,107.890725 C37.7755882,107.828484 37.9507833,107.8 38.1254394,107.8 C38.5475251,107.8 38.9696107,107.965627 39.345876,108.219342 C39.2978995,108.215649 39.249923,108.213539 39.2019464,108.213539 C39.0272903,108.213539 38.8520951,108.240968 38.6806734,108.300573 C38.0564395,108.517364 37.6397445,109.121849 37.4807212,109.751125 C37.3216979,110.379874 37.3777603,111.039744 37.4343618,111.685372 C37.7540257,115.304369 38.0731504,118.923894 38.3928142,122.542892 C38.4650486,123.361004 38.5453688,124.206017 38.9496654,124.926018 C39.3043682,125.558459 39.9803521,126.070636 40.7,126.085933 C40.4757502,126.281098 40.2132269,126.421406 39.9221334,126.475736 C39.8331882,126.492088 39.7442429,126.5 39.6563758,126.5" id="Fill-39" fill="#8FA4A8"></path>
                    <path d="M41.2143495,124.3 C41.2051943,124.3 41.196475,124.3 41.1877557,124.299481 C40.6057427,124.284417 40.0590429,123.780061 39.7721781,123.157278 C39.4452045,122.448271 39.3802457,121.616161 39.3218265,120.810542 C39.0632993,117.246807 38.8052082,113.682552 38.5466811,110.118817 C38.5009048,109.483048 38.4555645,108.833255 38.5841741,108.214107 C38.7127837,107.59444 39.0497844,106.999185 39.5546316,106.785704 C39.6932684,106.72701 39.834957,106.7 39.9762096,106.7 C40.0150104,106.7 40.0538113,106.702078 40.0926122,106.705714 C40.6353883,106.760772 41.1672653,107.190332 41.5391433,107.698843 C42.8823507,109.536548 42.9237674,112.215712 42.8945577,114.652827 C42.8692718,116.762708 42.8439858,118.872589 42.8186999,120.982989 C42.8108525,121.652001 42.8003893,122.336595 42.6033333,122.963015 C42.4058412,123.589954 41.9820835,124.157679 41.4292801,124.277146 C41.357346,124.292728 41.2858477,124.3 41.2143495,124.3" id="Fill-40" fill="#D4E8ED"></path>
                    <path d="M33.1735513,117.7 C33.1376751,117.290974 33.1004535,116.883373 33.0582989,116.462233 C33.0488814,116.369596 33.0269072,116.293349 33,116.227078 C33.7776176,115.330641 34.729235,114.690024 35.8970067,114.407126 C35.9167387,114.402138 35.9360222,114.4 35.9548572,114.4 C35.9965633,114.4 36.0355787,114.411401 36.0710065,114.431354 C36.324831,114.577435 36.4042071,115.184561 36.1194395,115.364846 C36.1032951,115.374822 36.0862539,115.384086 36.0678674,115.391211 C34.8552503,115.870071 33.9099113,116.668884 33.1735513,117.7" id="Fill-41" fill="#869A9F"></path>
                    <path d="M13.1680622,139.733023 C10.2563429,139.583313 7.3227193,139.943518 4.5173928,140.795626 C4.30078272,140.861664 3.89498512,140.861664 3.3,140.795626 L3.3,146.010148 C8.15660586,146.396617 11.8164223,146.396617 14.2794492,146.010148 C14.3472485,144.151718 14.2471142,142.285972 13.9816538,140.448929 C13.9571418,140.279521 13.9274144,140.102233 13.8251939,139.971659 C13.6713416,139.775235 13.4058813,139.745405 13.1680622,139.733023 Z" id="Fill-43" fill="#F786B8"></path>
                    <path d="M413.612193,287.1 C412.906074,287.1 412.203678,286.971847 411.511384,286.658338 C409.617943,285.801416 407.956331,283.627209 406.13999,282.275823 C403.779703,280.519077 401.210452,280.187968 398.686396,280.120866 C398.328552,280.110966 397.971239,280.106566 397.614457,280.106566 C391.274277,280.106566 384.951111,281.568504 378.633263,283.030443 C372.315947,284.491831 366.002352,285.95377 359.685568,285.95432 C357.782556,285.95432 355.880077,285.821766 353.976002,285.516508 C348.884291,284.699737 341.808748,285.781615 338.835924,277.640301 C338.570598,276.913732 339.861072,272.352462 339.889785,271.460888 C339.958908,269.360933 341.350408,268.682215 342.423943,268.594763 C341.35094,268.682215 339.958908,269.360933 339.890317,271.460888 C339.861072,272.352462 338.57113,276.913732 338.835924,277.640301 C341.808748,285.781615 348.884291,284.699737 353.976002,285.516508 C355.880077,285.821766 357.782556,285.95432 359.685568,285.95432 C366.002352,285.95377 372.315947,284.491831 378.633263,283.030443 C384.951111,281.568504 391.274277,280.106566 397.614457,280.106566 C397.971239,280.106566 398.328552,280.110966 398.686396,280.120866 C401.210452,280.187968 403.779703,280.519077 406.13999,282.275823 C407.956331,283.627209 409.617943,285.801416 411.511384,286.658338 C412.204209,286.971847 412.906074,287.1 413.612725,287.1 C415.136091,287.1 416.677535,286.503784 418.179101,285.887768 C423.278256,283.796613 428.353484,281.482152 433.4,278.947135 C428.353484,281.482152 423.278256,283.796613 418.179101,285.887768 C416.677535,286.503784 415.136091,287.1 413.612193,287.1 M362.171339,268.301605 C362.041069,268.299405 361.910799,268.297205 361.780528,268.295005 C359.064523,268.247154 356.348519,268.199303 353.633046,268.199303 C356.34905,268.199303 359.065055,268.247154 361.78106,268.295005 C361.91133,268.297205 362.041069,268.299405 362.171339,268.301605 M394.205095,266.349604 C395.199404,266.260502 396.194776,266.20495 397.189616,266.2 C396.194776,266.20495 395.199404,266.260502 394.205095,266.349604" id="Fill-44" fill="#DEDEDE"></path>
                    <path d="M519.028681,267.3 C521.073987,267.27748 523.108613,266.559969 524.7,265.297779 C521.100688,259.077434 517.506717,252.857612 513.907405,246.637791 C512.769937,244.67066 511.627129,242.691483 510.852797,240.562519 C509.896896,237.944915 509.51774,235.164954 509.143925,232.409609 C507.702064,221.723415 506.254863,211.037745 504.807662,200.352075 C504.684837,199.455972 504.556671,198.531588 504.081391,197.756991 C502.714294,195.531661 499.451416,195.632217 496.829366,196.011398 C496.257962,196.094147 495.633155,196.203083 495.248659,196.630447 C494.810761,197.118563 494.837462,197.845501 494.890864,198.494403 C495.590434,206.967836 493.336859,199.464875 494.036428,207.938309 C494.282078,210.918334 497.486213,229.904083 498.399392,232.755794 C500.01214,237.796699 502.196292,243.007816 505.47519,247.198706 C510.527043,253.652111 513.902065,259.596974 519.028681,267.3" id="Fill-46" fill="#1A315D"></path>
                    <path d="M487.332883,200.693293 C483.66707,200.597418 480.001258,200.502066 476.335445,200.406191 C476.106996,199.938865 477.057982,200.34175 477.047357,200.860944 C476.808282,217.229947 478.295858,233.622525 481.467583,249.691328 C482.832965,256.61583 484.522427,263.54557 484.54899,270.6 C486.052505,270.59738 487.556019,270.594761 489.064847,270.592665 C489.574873,248.52406 490.084899,226.455979 490.594925,204.387373 C490.621489,203.270924 490.573674,201.991015 489.702379,201.280595 C489.059534,200.760353 488.161675,200.714773 487.332883,200.693293" id="Fill-47" fill="#1A315D"></path>
                    <path d="M486.181232,273.057842 C485.582586,273.489648 486.399382,273.832296 486.784951,273.864638 C487.495208,273.923203 488.230832,273.888676 488.92587,273.744886 C489.113581,273.706425 489.296219,273.65835 489.448417,273.556517 C489.565102,273.476537 489.646274,273.368585 489.73252,273.261945 C489.960817,272.967809 490.498583,272.50235 490.584829,272.161014 C490.655855,271.879553 490.46307,271.605959 490.305799,271.348973 C489.98111,270.803097 489.42305,270.24236 489.45349,269.593777 C487.91629,269.739752 486.439969,269.282597 485.161505,269.640104 C485.054966,270.102067 484.654178,270.479679 484.841889,270.84112 C484.720131,270.60249 481.001425,271.407975 480.560051,271.482274 C479.854866,271.602026 479.139535,271.703421 478.419131,271.758053 C477.861072,271.800884 476.785539,271.578425 476.470996,272.060055 C476.359384,272.230942 476.323871,272.430674 476.308652,272.626473 C476.293432,272.775944 476.293432,272.928912 476.349238,273.070516 C476.44563,273.314391 476.704367,273.489648 476.983396,273.578369 C480.037504,274.545563 483.081465,273.019381 486.181232,273.057842" id="Fill-48" fill="#1A315D"></path>
                    <path d="M521.806717,270.163525 C521.428647,270.95537 522.423022,270.995255 522.837346,270.855392 C523.577948,270.601194 524.303014,270.222554 524.929678,269.732238 C525.095407,269.601947 525.261136,269.458894 525.354359,269.268511 C525.432044,269.119608 525.45794,268.950496 525.489014,268.785108 C525.566699,268.327231 525.872263,267.519963 525.784219,267.070595 C525.706534,266.699932 525.369896,266.461156 525.07987,266.222379 C524.468743,265.716108 523.401861,264.791845 523.091118,264 C521.620271,264.879592 519.377747,265.909682 518.274612,266.922755 C518.880559,267.372123 518.937529,267.765121 519.31042,268.113448 C519.061826,267.883712 515.736882,270.551736 515.327738,270.842098 C514.675179,271.310079 514.012262,271.757852 513.313092,272.153508 C512.774471,272.461419 511.572934,272.684773 511.505607,273.408017 C511.479712,273.664875 511.547039,273.921201 511.635083,274.164232 C511.697231,274.349297 511.774917,274.534363 511.904393,274.67848 C512.127092,274.926829 512.479266,275.018298 512.810725,274.997026 C516.384262,274.76144 518.66304,271.536092 521.806717,270.163525" id="Fill-49" fill="#1A315D"></path>
                    <path d="M499.399162,116.658973 C499.393943,116.376004 499.294779,116.10467 499.195615,115.839684 C498.125692,112.914786 497.055768,109.989888 495.985845,107.06499 C495.218632,104.970488 494.289625,102.685048 492.311571,101.698623 C489.660249,100.376336 486.601834,101.997988 483.793937,102.935754 C483.877443,106.64609 483.710431,110.362773 483.2929,114.049837 C483.052819,116.130058 482.739671,118.230378 482.995409,120.307955 C483.256366,122.385532 484.174934,124.487438 485.907688,125.627249 C488.851282,127.558317 492.901334,126.026051 495.41174,123.552846 C497.118398,121.871427 498.43884,119.7838 499.22693,117.505765 C499.320875,117.232316 499.4096,116.948818 499.399162,116.658973" id="Fill-50" fill="#EDD5BE"></path>
                    <path d="M493.996142,114.096921 C494.155264,113.303955 494.781145,112.593733 495.576756,112.446809 C496.372367,112.299885 497.268755,112.810672 497.449094,113.598864 C497.671865,114.553075 496.913383,115.416055 496.425408,116.267367 C494.860706,119.029752 496.085947,122.47743 497.332404,125.4 C498.47278,123.370644 500.02157,121.569895 501.851475,120.13407 C503.28888,119.009597 505.03392,117.915357 505.389293,116.126277 C505.58024,115.155623 505.315036,114.138293 505.505983,113.167639 C505.765882,111.821984 506.874434,110.742596 507.070684,109.384741 C507.277543,107.901179 506.354634,106.510438 505.405205,105.35308 C503.188102,102.659117 500.557281,100.304088 497.640041,98.3951353 C496.801997,97.8493413 495.879088,97.2520975 495.613884,96.290991 C495.475978,95.803012 495.534323,95.2630526 495.300944,94.811672 C494.908443,94.0346184 493.895364,93.8638258 493.025496,93.7869161 C490.346939,93.5503523 487.583516,93.3222752 485.01104,94.1258493 C484.358639,94.3300579 483.711542,94.6021593 483.027317,94.6042809 C481.69069,94.6079938 480.534402,93.5922549 479.203079,93.5057977 C477.712634,93.4087323 476.360095,94.5438139 475.755431,95.9085639 C475.150767,97.2733139 475.156071,98.8215865 475.240936,100.311514 C476.153237,100.709323 477.065537,101.107662 477.977838,101.506001 C477.166315,102.729131 477.118578,104.41319 477.855844,105.679813 C479.664534,105.90736 481.536872,105.608208 483.181135,104.829563 C484.316207,104.292786 485.472495,103.510428 486.708344,103.721002 C487.960105,103.934758 488.792845,105.080978 489.721058,105.952975 C490.643967,106.825503 492.182148,107.453511 493.115665,106.587879 C493.974925,108.980037 494.277258,111.570569 493.996142,114.096921" id="Fill-51" fill="#1A315D"></path>
                    <path d="M498.837669,126.597474 C502.733304,127.099795 505.75462,129.319247 507.270452,131.795567 C508.786284,134.271888 509.050132,137.003521 509.298459,139.678072 C509.614042,143.11337 509.929624,146.548668 510.250381,149.983447 C511.00571,158.200659 511.766212,166.430845 511.409242,174.659992 C511.248863,178.410798 510.855678,182.154858 510.462493,185.897361 C509.65543,193.598241 508.848366,201.29912 508.041302,209 C497.378745,208.297891 486.716189,207.595783 476.053633,206.893156 C474.775782,206.809089 473.420328,206.705304 472.406325,206.17029 C470.564563,205.19782 470.673206,203.32605 470.968095,201.759409 C474.641271,182.180285 477.579811,162.58767 479.32845,142.833149 C479.571604,140.107743 478.857663,131.83293 480.533872,129.785243 C482.494624,127.391432 495.180013,126.126288 498.837669,126.597474" id="Fill-52" fill="#2687CB"></path>
                    <path d="M439.778409,165.850012 C440.323755,166.002772 440.897856,166.033673 441.46799,166.055829 C442.973641,166.114135 444.485242,166.114718 445.999321,166.057579 C446.197133,166.050582 446.431632,166.018514 446.540701,165.82086 C446.609117,165.697253 446.60416,165.546243 446.594244,165.406893 C446.530786,164.538147 446.356771,163.69039 446.079636,162.896857 C445.867942,162.292233 445.575934,161.694022 445.084627,161.370429 C444.515484,160.995527 443.790173,161.054998 443.11444,161.005439 C441.834364,160.91215 440.611797,160.382157 439.641576,159.5 C439.327259,159.596203 439.181007,160.066143 439.274707,160.405479 C439.367912,160.744815 439.620754,160.978035 439.863185,161.194347 C439.233063,161.531351 438.565261,161.095229 437.904401,160.989696 C437.339224,160.899323 436.750746,161.059662 436.179124,161.218835 C436.020478,161.262564 435.851917,161.31329 435.734915,161.448558 C435.432,161.797805 435.696741,162.337711 435.964952,162.671799 C437.041267,164.011068 438.199384,165.406893 439.778409,165.850012" id="Fill-53" fill="#EDD5BE"></path>
                    <path d="M497.672604,148.338621 C499.046664,146.952902 500.410274,145.467971 501.131264,143.624683 C501.852254,141.781395 501.805232,139.487586 500.540888,137.990186 C499.417608,136.657055 497.547214,136.209245 495.859681,136.471642 C494.172147,136.734582 492.630901,137.609059 491.199371,138.569737 C485.044837,142.692196 480.128524,148.626499 473.780681,152.425298 C464.468944,158.00287 453.229343,158.376949 442.617735,160.181202 C442.32307,160.231079 442.009074,160.292342 441.796434,160.509741 C441.556104,160.755874 441.508561,161.134291 441.475124,161.482889 C441.350257,162.769937 441.224867,164.056444 441.1,165.34295 C447.21326,166.272184 453.373541,166.864205 459.547406,167.115217 C466.10162,167.38141 472.960425,167.190575 478.754464,163.998434 C480.974903,162.774817 482.965461,161.147844 484.935121,159.530088 C489.302855,155.94923 493.681038,152.361325 497.672604,148.338621" id="Fill-54" fill="#57C1F2"></path>
                    <path d="M498.221743,106.841034 C502.194009,108.257276 506.281716,109.313397 510.43764,110 C512.568075,105.507402 511.282468,99.8572751 508.459378,96.6869316 C505.631041,93.5170827 501.632539,92.3283894 497.712748,91.6254625 C495.577065,91.2430822 493.30495,90.9957469 491.200751,92.0805595 C489.023089,93.2054403 487.354423,95.6204219 486.2,98.1838047 C488.944379,102.880207 493.614545,105.199717 498.221743,106.841034 Z" id="Fill-55" fill="#2687CB"></path>
                    <path d="M493.290869,100.742733 C493.047216,100.098253 492.803564,99.4532615 492.559911,98.808781 C492.199729,97.8691264 491.823657,96.8962775 491.082105,96.1976648 C490.467677,95.6221263 489.662564,95.284055 488.868045,94.9842847 C485.493987,93.7131976 481.701482,92.9073417 478.279753,94.0436088 C476.605966,94.600252 474.900398,96.0306718 475.244689,97.7067296 C475.530716,99.1024231 477.056193,99.8679351 478.412172,100.435303 C479.921759,101.068548 481.431345,101.701794 482.935635,102.335039 C483.682483,102.646555 484.424034,102.958582 485.170882,103.270608 C486.648688,103.892108 488.131791,104.513097 489.625487,105.098338 C490.631878,105.490542 491.802469,105.859254 492.750596,105.354701 C493.518631,104.945134 493.894703,104.047355 493.9,103.200645 C493.9,102.353934 493.592786,101.537865 493.290869,100.742733" id="Fill-56" fill="#2687CB"></path>
                    <path d="M415.156376,266.371083 C414.749015,234.244028 414.341655,202.116973 413.934295,169.989391 C413.918403,168.710613 413.917344,167.366473 414.536065,166.245302 C415.513412,164.473672 417.697477,163.803184 419.681835,163.373586 C424.666568,162.295639 429.763603,161.733735 434.864346,161.7 C435.599078,163.216506 435.792958,164.986554 435.403079,166.624824 C430.247774,166.627986 425.092998,167.212555 420.069066,168.365353 C415.888988,202.376313 422.755842,237.131557 417.4787,270.991235 C417.397122,271.516767 417.301241,272.067074 416.970691,272.485075 C416.528899,273.043816 415.777216,273.236739 415.080625,273.395928 C399.624245,276.929171 362.811383,275.985637 347.704623,275.985637 C347.30362,274.139158 348.213161,273.213546 347.812158,271.367067 C362.620152,270.404557 397.076257,272.93892 411.859883,270.180007 C412.898678,269.986556 414.04183,269.728797 414.654724,268.87171 C415.158495,268.166959 415.1675,267.236604 415.156376,266.371083" id="Fill-67" fill="#808080"></path>
                    <path d="M427.099991,243.331312 C426.769944,241.617299 425.782578,239.639672 424.276567,238.565419 C422.294624,237.151488 419.943805,237.547951 417.67952,238.136655 C416.704357,238.39037 416.577885,239.927772 417.67952,240.104904 C419.547195,240.404987 421.818691,240.136163 422.92199,241.825169 C424.025843,243.516259 423.98535,245.795011 424.011975,247.700222 C424.069664,251.861262 423.748493,256.088466 424.122915,260.234919 C424.310959,262.316741 427.400083,262.32664 427.573704,260.234919 C428.021347,254.833434 428.131178,248.677053 427.099991,243.331312" id="Fill-68" fill="#808080"></path>
                    <path d="M426.500206,264.070306 C426.386374,264.085021 426.293885,264.056136 426.22274,264 C426.183166,264.0218 426.140479,264.04033 426.089343,264.049051 C425.071526,264.228903 424.344068,265.055132 424.68512,266.383858 C424.95547,267.437355 425.726949,268.414551 426.685627,268.399836 C427.738128,268.382941 429.149467,267.489675 428.987167,265.973468 C428.827536,264.478516 427.57494,263.930784 426.500206,264.070306" id="Fill-69" fill="#333333"></path>
                    <path d="M427.247531,269.403783 C423.38751,269.206701 421.652018,263.361368 426.17093,262.729174 C426.366574,262.701877 426.532983,262.755925 426.660601,262.853102 C426.751114,262.776125 426.868612,262.722623 427.013096,262.707883 C429.001013,262.503703 431.249787,263.658903 431.372345,265.794057 C431.492093,267.879531 429.309095,269.509149 427.247531,269.403783 Z M435.533702,264.734942 C435.392029,263.820499 435.014235,262.942635 434.453728,262.191428 C432.991463,260.229881 433.16237,259.616795 430.932148,258.660316 C428.194265,257.486008 426.064113,256.898581 423.066497,257.940227 C422.052862,258.292355 421.048222,258.788065 420.384272,259.611882 C419.958691,260.140347 419.696709,260.775816 419.505563,261.420566 C418.288976,265.509078 419.805774,271.472333 424.105993,273.341071 C428.1982,275.118638 433.361948,272.434818 435.005802,268.416732 C435.483105,267.250613 435.726535,265.974216 435.533702,264.734942 L435.533702,264.734942 Z" id="Fill-70" fill="#333333"></path>
                    <path d="M446.265237,159.668681 C442.794896,159.616423 439.324555,159.564165 435.854727,159.511906 C433.130927,159.470947 430.250015,159.465298 427.9,160.728913 C428.287647,162.886099 428.675294,165.042814 429.063455,167.2 C434.90897,166.502752 440.754485,165.805974 446.6,165.108726 C446.012625,163.355482 445.897101,161.471358 446.265237,159.668681" id="Fill-71" fill="#333333"></path>
                    <path d="M460.9,59.4 L137.515729,59.4 C137.510486,56.8296492 137.505243,54.26966 137.5,51.7 L460.889514,51.7 C460.89266,53.5588589 460.89633,55.4287701 460.9,57.287629 L460.9,59.4" id="Fill-72" fill="#DDE1E1"></path>
                    <path d="M462,89.1 L138.615729,89.1 C138.610486,86.5296492 138.605243,83.96966 138.6,81.4 L461.989514,81.4 C461.99266,83.2588589 461.99633,85.1287701 462,86.987629 L462,89.1" id="Fill-72" fill="#DDE1E1"></path>
                    <path d="M460.9,122.1 L137.515729,122.1 C137.510486,119.529649 137.505243,116.96966 137.5,114.4 L460.889514,114.4 C460.89266,116.258859 460.89633,118.12877 460.9,119.987629 L460.9,122.1" id="Fill-72" fill="#DDE1E1"></path>
                    <path d="M138.0665,59.4 L138.0335,59.4 L138.0335,52.8 C138.0445,55.0025657 138.0555,57.1968422 138.0665,59.4" id="Fill-73" fill="#CCCCCC"></path>
                    <path d="M460.361,58.3 C460.3533,56.8362344 460.3456,55.3637656 460.339,53.9 L460.361,53.9 L460.361,58.3" id="Fill-74" fill="#CCCCCC"></path>
                    <path d="M524.914805,72.6 C524.455653,71.2323276 524.734611,69.8277035 525.732242,68.483297 C536.510229,68.2944323 547.29557,68.2 558.074082,68.2 C581.49188,68.2 604.878682,68.6457024 628.1,69.5357387 C621.795855,70.4672888 614.874429,70.6274132 608.104303,70.7761327 C580.37447,71.3842405 552.644637,71.9918922 524.914805,72.6" id="Fill-75" fill="#BFBFBF"></path>
                    <path d="M525.970998,85.8 C525.609825,84.4078651 525.822404,82.9804744 526.593399,81.615709 C533.836944,81.471903 541.088949,81.4 548.33408,81.4 C567.650728,81.4 586.945166,81.9107433 606.1,82.9308382 C601.206456,83.8627939 595.832231,84.0093832 590.574342,84.1443753 C569.039894,84.695941 547.505446,85.2479705 525.970998,85.8" id="Fill-76" fill="#BFBFBF"></path>
                    <path d="M525.913822,102.3 C525.67999,100.882883 525.807441,99.431317 526.286926,98.0462891 C530.009741,97.9490776 533.737181,97.9 537.462051,97.9 C550.478541,97.9 563.488349,98.4945946 576.4,99.6804805 C573.320609,100.610124 569.933896,100.738953 566.620673,100.856456 C553.052237,101.337795 539.483287,101.819133 525.913822,102.3" id="Fill-77" fill="#BFBFBF"></path>
                    <rect id="Rectangle" fill="url(#linearGradient-1)" x="350.9" y="228.8" width="56.1" height="41.8"></rect>
                    <rect id="Rectangle" fill="url(#linearGradient-2)" x="367.4" y="195.8" width="39.6" height="33"></rect>
                    <rect id="Rectangle" fill="url(#linearGradient-2)" x="367.4" y="162.8" width="39.6" height="33"></rect>
                    <rect id="Rectangle" fill="#FFFFFF" x="378.4" y="228.8" width="9.9" height="28.6"></rect>
                    <rect id="Rectangle" fill="#FFFFFF" x="386.1" y="195.8" width="9.9" height="28.6"></rect>
                    <rect id="Rectangle" fill="#FFFFFF" x="382.8" y="166.1" width="19.8" height="8.8"></rect>
                    <g id="Group-2" transform="translate(204.600000, 62.700000)">
                        <rect id="Rectangle" fill="url(#linearGradient-2)" x="0" y="94.6" width="39.6" height="33"></rect>
                        <rect id="Rectangle" fill="url(#linearGradient-2)" x="0" y="63.8" width="39.6" height="33"></rect>
                        <rect id="Rectangle" fill="#FFFFFF" x="18.7" y="63.8" width="9.9" height="28.6"></rect>
                        <rect id="Rectangle" fill="url(#linearGradient-2)" x="0" y="31.9" width="39.6" height="33"></rect>
                        <rect id="Rectangle" fill="#FFFFFF" x="18.7" y="31.9" width="9.9" height="28.6"></rect>
                        <rect id="Rectangle" fill="url(#linearGradient-2)" x="0" y="0" width="39.6" height="33"></rect>
                        <rect id="Rectangle" fill="#FFFFFF" x="18.7" y="0" width="9.9" height="28.6"></rect>
                        <rect id="Rectangle" fill="#FFFFFF" x="14.3" y="102.3" width="19.8" height="8.8"></rect>
                    </g>
                    <g id="Group-2" transform="translate(254.100000, 94.600000)">
                        <rect id="Rectangle" fill="url(#linearGradient-3)" x="0" y="62.7" width="39.6" height="33"></rect>
                        <rect id="Rectangle" fill="url(#linearGradient-4)" x="0" y="31.9" width="39.6" height="33"></rect>
                        <rect id="Rectangle" fill="url(#linearGradient-3)" x="0" y="0" width="39.6" height="33"></rect>
                        <rect id="Rectangle" fill="#FFFFFF" x="15.4" y="7.7" width="19.8" height="8.8"></rect>
                    </g>
                    <g id="Group-2" transform="translate(302.500000, 94.600000)">
                        <rect id="Rectangle" fill="#A0E0F8" x="0" y="62.7" width="39.6" height="33"></rect>
                        <rect id="Rectangle" fill="#F786B8" x="0" y="31.9" width="39.6" height="33"></rect>
                        <rect id="Rectangle" fill="url(#linearGradient-3)" x="0" y="0" width="39.6" height="33"></rect>
                        <rect id="Rectangle" fill="#FFFFFF" x="15.4" y="7.7" width="19.8" height="8.8"></rect>
                        <rect id="Rectangle" fill="#FFFFFF" x="15.4" y="39.6" width="19.8" height="8.8"></rect>
                        <rect id="Rectangle" fill="#FFFFFF" x="20.9" y="64.9" width="9.9" height="28.6"></rect>
                    </g>
                </g>
            </g>
        </g>
    </g>
</svg>