<?xml version="1.0" encoding="UTF-8"?>
<svg width="103px" height="130px" viewBox="0 0 103 130" version="1.1" xmlns="http://www.w3.org/2000/svg" xmlns:xlink="http://www.w3.org/1999/xlink">
    <title>warning</title>
    <defs>
        <filter id="filter-1">
            <feColorMatrix in="SourceGraphic" type="matrix" values="0 0 0 0 0.149020 0 0 0 0 0.529412 0 0 0 0 0.796078 0 0 0 1.000000 0"></feColorMatrix>
        </filter>
    </defs>
    <g id="Why-Clinq" stroke="none" stroke-width="1" fill="none" fill-rule="evenodd">
        <g id="Desktop-HD" transform="translate(-763.000000, -2543.000000)">
            <g id="Return-Optimization" transform="translate(113.000000, 1228.000000)">
                <g id="Second-Part" transform="translate(63.000000, 838.000000)">
                    <g filter="url(#filter-1)" id="warning">
                        <g transform="translate(587.000000, 477.000000)">
                            <path d="M51.4998856,130 C50.9342682,130 50.3680299,129.845866 49.8682253,129.538217 C48.6438592,128.783641 19.7545317,110.750576 8.19072936,82.9754966 C-3.29111748,55.396644 0.59928712,15.9754681 0.770027826,14.3109441 C0.863779996,13.4028532 1.35427148,12.5820429 2.11111846,12.0682628 C2.86796545,11.5538636 3.81355852,11.4003486 4.69520144,11.6454774 C4.76039335,11.6634288 11.5949886,13.5309887 19.8687728,13.5309887 C22.7465298,13.5309887 25.4827272,13.3056682 27.9997557,12.8605984 C41.5037933,10.4743062 48.9909285,1.26464202 49.0648127,1.17117117 C49.6540233,0.433927585 50.5511881,0 51.4967812,0 C51.4998856,0 51.50299,0 51.5067152,0 C52.4560336,0.00309506123 53.3544401,0.43516561 53.9411673,1.17921833 C54.0088427,1.26464202 61.4959779,10.4743062 75.0000155,12.8605984 C77.5176649,13.3056682 80.2532414,13.5309887 83.1309984,13.5309887 C91.4532109,13.5309887 98.2368943,11.6646668 98.3045698,11.6454774 C99.1855918,11.4003486 100.131806,11.5538636 100.888653,12.0682628 C101.6455,12.5820429 102.135991,13.4022342 102.229743,14.3109441 C102.400484,15.9748491 106.29151,55.396644 94.8096627,82.9754966 C83.2458603,110.750576 54.355912,128.783641 53.1321668,129.538217 C52.6317413,129.845866 52.065503,130 51.4998856,130 Z M6.67455189,18.4329467 C6.00835269,28.6410777 4.95472732,59.0568634 13.9251336,80.6022037 C23.198527,102.876121 45.3097589,119.0082 51.4998856,123.199531 C57.6900123,119.0082 79.8012442,102.876121 89.0746376,80.6022037 C98.0450439,59.0568634 96.9914185,28.6416967 96.3252193,18.4329467 C93.2456778,19.0265794 88.495361,19.7211112 83.1309984,19.7211112 C79.8906502,19.7211112 76.7906199,19.4636021 73.9165881,18.955393 C62.6930254,16.9726968 55.1183468,11.0772242 51.5005065,7.61261261 C47.8820453,11.0778432 40.3073666,16.9726968 29.0844248,18.955393 C26.2103931,19.4636021 23.1097418,19.7211112 19.8700145,19.7211112 C14.5044102,19.7211112 9.75409335,19.0259604 6.67455189,18.4329467 Z M51.4998856,102.834648 C46.4863176,102.834648 42.4071669,98.7683561 42.4071669,93.7692132 C42.4071669,88.7700703 46.4856967,84.7037788 51.4998856,84.7037788 C56.5140745,84.7037788 60.5926043,88.7700703 60.5926043,93.7692132 C60.5926043,98.7683561 56.5134536,102.834648 51.4998856,102.834648 Z M51.4998856,90.8945203 C49.909824,90.8945203 48.6159199,92.1845418 48.6159199,93.7698322 C48.6159199,95.3551226 49.9092031,96.6451441 51.4998856,96.6451441 C53.0905681,96.6451441 54.3838513,95.3551226 54.3838513,93.7698322 C54.3838513,92.1845418 53.0899472,90.8945203 51.4998856,90.8945203 Z M51.4998856,81.1364113 C46.4863176,81.1364113 42.4071669,77.0701198 42.4071669,72.0709769 L42.4071669,32.2226825 C42.4071669,27.2241586 46.4856967,23.1572482 51.4998856,23.1572482 C56.5140745,23.1572482 60.5926043,27.2235396 60.5926043,32.2226825 L60.5926043,72.0715959 C60.5919834,77.0701198 56.5134536,81.1364113 51.4998856,81.1364113 Z M51.4998856,29.3473706 C49.909824,29.3473706 48.6159199,30.6373921 48.6159199,32.2226825 L48.6159199,72.0715959 C48.6159199,73.6568863 49.9092031,74.9469078 51.4998856,74.9469078 C53.0905681,74.9469078 54.3838513,73.6568863 54.3838513,72.0715959 L54.3838513,32.2226825 C54.3832305,30.6373921 53.0899472,29.3473706 51.4998856,29.3473706 Z" id="Shape" fill="#000000" fill-rule="nonzero"></path>
                        </g>
                    </g>
                </g>
            </g>
        </g>
    </g>
</svg>