<?xml version="1.0" encoding="UTF-8"?>
<svg width="142px" height="128px" viewBox="0 0 142 128" version="1.1" xmlns="http://www.w3.org/2000/svg" xmlns:xlink="http://www.w3.org/1999/xlink">
    <title>return-box</title>
    <defs>
        <filter id="filter-1">
            <feColorMatrix in="SourceGraphic" type="matrix" values="0 0 0 0 0.149020 0 0 0 0 0.529412 0 0 0 0 0.796078 0 0 0 1.000000 0"></feColorMatrix>
        </filter>
    </defs>
    <g id="Why-Clinq" stroke="none" stroke-width="1" fill="none" fill-rule="evenodd">
        <g id="Desktop-HD" transform="translate(-176.000000, -2535.000000)">
            <g id="Return-Optimization" transform="translate(113.000000, 1228.000000)">
                <g id="Second-Part" transform="translate(63.000000, 838.000000)">
                    <g filter="url(#filter-1)" id="return-box">
                        <g transform="translate(0.000000, 469.000000)">
                            <path d="M4.03494367,73.0961026 L7.32703556,69.814178 C10.0999472,101.895537 36.4580151,126.858499 68.7246538,127.962081 C100.991292,129.065663 129.002043,105.962221 133.971976,74.145682 C134.171203,72.8590074 133.286891,71.6548726 131.996809,71.4561716 C130.706728,71.2574706 129.499405,72.1394474 129.300177,73.4261219 C124.728473,102.71148 99.0626228,124.055506 69.3562263,123.276224 C39.6498299,122.496942 15.1444539,99.8367852 12.1226234,70.3522274 L14.8734686,73.0961026 C15.7965054,74.0167018 17.2930439,74.0167018 18.2160808,73.0961026 C19.1391176,72.1755034 19.1391176,70.6829171 18.2160808,69.7623178 L11.1255122,62.6904746 C10.6822622,62.2483724 10.0810725,62 9.45420612,62 C8.82733979,62 8.22615005,62.2483724 7.78290003,62.6904746 L0.692331485,69.7623178 C0.0952313276,70.3578411 -0.137962829,71.2258352 0.0805909973,72.0393352 C0.299144824,72.8528351 0.936243107,73.4882509 1.75189709,73.7062276 C2.56755108,73.9242042 3.43784352,73.6916259 4.03494367,73.0961026 Z" id="Path" fill="#000000" fill-rule="nonzero"></path>
                            <path d="M137.965064,54.9027715 L134.673821,58.1852698 C131.900888,26.1042179 105.542648,1.14149577 73.2757961,0.0379192173 C41.0089446,-1.06565734 12.9980038,22.0375542 8.02802454,53.8537864 C7.82879511,55.1404549 8.71311738,56.344584 10.0032136,56.543284 C11.2933098,56.7419841 12.5006468,55.8600115 12.6998763,54.5733431 C17.2752718,25.2906197 42.9410179,3.95042059 72.6458245,4.73031636 C102.350631,5.51021213 126.855063,28.1676226 129.87936,57.6498749 L127.126415,54.9039502 C126.529308,54.3084297 125.659006,54.0758525 124.843343,54.2938281 C124.027679,54.5118037 123.390574,55.1472165 123.172017,55.9607126 C122.953461,56.7742086 123.186658,57.6421986 123.783765,58.2377191 L130.874414,65.3095287 C131.31767,65.7516288 131.918866,66 132.54574,66 C133.172613,66 133.77381,65.7516288 134.217065,65.3095287 L141.307714,58.2377191 C142.230762,57.3171242 142.230762,55.824545 141.307714,54.9039502 C140.384667,53.9833553 138.888111,53.9833553 137.965064,54.9039502 L137.965064,54.9027715 Z" id="Path" fill="#000000" fill-rule="nonzero"></path>
                            <path d="M84.8920313,89.4545889 L84.8955938,89.4522252 C84.8955938,89.4522252 99.2201094,77.5687484 99.2512813,77.5377257 C99.7290969,77.0922822 100,76.4697539 100,75.8181803 C100,75.8181803 99.9435938,39.8282727 99.8981719,39.6787727 C99.5949091,38.6818281 98.6716358,38 97.625,38 L59.625,38 C59.1560446,38 58.6975706,38.1380678 58.3074688,38.397091 L44.0574688,47.851636 C43.4739986,48.2410483 43.0943417,48.8681486 43.0210781,49.5634996 C43.0145469,49.6013178 43.0103906,49.645045 43.007125,49.690545 C43.007125,49.7200905 43.0026719,49.749636 43.002375,49.7791814 C43.002375,49.7936587 43,49.8039996 43,49.8193632 L43,87.6363617 C43,88.9417619 44.0633237,90 45.375,90 L83.375,90 C83.9292746,90.000739 84.4662015,89.8077009 84.8920313,89.4545889 L84.8920313,89.4545889 Z M95.25,74.7114077 L85.75,82.5899982 L85.75,51.0830223 L95.25,44.7800907 L95.25,74.7114077 Z M81,85.2727254 L47.75,85.2727254 L47.75,52.1818177 L57.25,52.1818177 L57.25,66.3636353 C57.25,67.6690355 58.3133237,68.7272715 59.625,68.7272715 L69.125,68.7272715 C70.4366763,68.7272715 71.5,67.6690355 71.5,66.3636353 L71.5,52.1818177 L81,52.1818177 L81,85.2727254 Z M62,63.999999 L62,52.1818177 L66.75,52.1818177 L66.75,63.999999 L62,63.999999 Z M53.2190313,47.4545451 L60.3440313,42.7272726 L89.7809687,42.7272726 L82.6559687,47.4545451 L53.2190313,47.4545451 Z" id="Shape" fill="#000000" fill-rule="nonzero"></path>
                            <path d="M61.75,76 L57.25,76 C56.0073593,76 55,77.1192881 55,78.5 C55,79.8807119 56.0073593,81 57.25,81 L61.75,81 C62.9926407,81 64,79.8807119 64,78.5 C64,77.1192881 62.9926407,76 61.75,76 Z" id="Path" fill="#000000" fill-rule="nonzero"></path>
                            <path d="M69,78.5 C69,79.8807119 70.0446689,81 71.3333333,81 L73.6666667,81 C74.9553311,81 76,79.8807119 76,78.5 C76,77.1192881 74.9553311,76 73.6666667,76 L71.3333333,76 C70.0446689,76 69,77.1192881 69,78.5 Z" id="Path" fill="#000000" fill-rule="nonzero"></path>
                            <circle id="Oval" fill="#000000" fill-rule="nonzero" cx="71.5" cy="101.5" r="2.5"></circle>
                            <circle id="Oval" fill="#000000" fill-rule="nonzero" cx="61.5" cy="101.5" r="2.5"></circle>
                            <circle id="Oval" fill="#000000" fill-rule="nonzero" cx="80.5" cy="101.5" r="2.5"></circle>
                        </g>
                    </g>
                </g>
            </g>
        </g>
    </g>
</svg>