<?xml version="1.0" encoding="UTF-8"?>
<svg width="200px" height="128px" viewBox="0 0 200 128" version="1.1" xmlns="http://www.w3.org/2000/svg" xmlns:xlink="http://www.w3.org/1999/xlink">
    <title>freight</title>
    <defs>
        <filter id="filter-1">
            <feColorMatrix in="SourceGraphic" type="matrix" values="0 0 0 0 0.149020 0 0 0 0 0.529412 0 0 0 0 0.796078 0 0 0 1.000000 0"></feColorMatrix>
        </filter>
    </defs>
    <g id="Why-Clinq" stroke="none" stroke-width="1" fill="none" fill-rule="evenodd">
        <g id="Desktop-HD" transform="translate(-178.000000, -2066.000000)">
            <g id="Return-Optimization" transform="translate(113.000000, 1228.000000)">
                <g id="Second-Part" transform="translate(63.000000, 838.000000)">
                    <g filter="url(#filter-1)" id="freight">
                        <g transform="translate(2.000000, 0.000000)">
                            <path d="M197.64975,54.1663134 L177.089694,50.0128199 L156.174662,14.623514 C155.645756,13.7283535 154.680576,13.1788969 153.637671,13.1792577 L143.599061,13.1792577 L143.599061,2.93877676 C143.599061,1.31943652 142.280933,0.00670188542 140.65494,0.00670188542 L130.392577,0.00670188542 C128.766584,0.00670188542 127.448457,1.31943652 127.448457,2.93877676 L127.448457,13.1792577 L116.804199,13.1792577 C115.178206,13.1792577 113.860079,14.4919923 113.860079,16.1113325 L113.860079,61.0709309 L100.968195,61.0709309 L100.968195,2.93207487 C100.968195,1.31273463 99.6500674,0 98.0240745,0 L21.7242456,0 C20.0982527,0 18.7801251,1.31273463 18.7801251,2.93207487 L18.7801251,61.0709309 L2.94412106,61.0709309 C2.16315489,61.070486 1.41404676,61.3792573 0.861820203,61.9292245 C0.309593641,62.4791916 0,63.2252348 0,64.0030057 L0,112.692203 C0,114.311544 1.31812816,115.624278 2.94412106,115.624278 L20.6172563,115.624278 C25.2437737,123.302231 33.5757756,128 42.566937,128 C51.5580984,128 59.8901002,123.302231 64.5166176,115.624278 L135.491794,115.624278 C140.118312,123.302231 148.450313,128 157.441475,128 C166.432636,128 174.764638,123.302231 179.391155,115.624278 L197.055879,115.624278 C198.681872,115.624278 200,114.311544 200,112.692203 L200,57.0397468 C200,55.6477639 199.018721,54.4470961 197.64975,54.1663134 Z M194.116805,75.6810411 L186.022997,75.6810411 L186.022997,70.2508384 L194.12017,70.2508384 L194.116805,75.6810411 Z M170.059134,49.6961558 L133.336698,49.6961558 L133.336698,31.5290199 L159.332441,31.5290199 L170.059134,49.6961558 Z M133.336698,5.86414974 L137.71082,5.86414974 L137.71082,13.1725558 L133.336698,13.1725558 L133.336698,5.86414974 Z M119.74832,19.0367055 L151.953634,19.0367055 L155.866791,25.6581683 L130.392577,25.6581683 C128.766584,25.6581683 127.448457,26.970903 127.448457,28.5902432 L127.448457,52.6282307 C127.448457,54.2475709 128.766584,55.5603056 130.392577,55.5603056 L174.924504,55.5603056 L194.12017,59.4356708 L194.12017,64.3866887 L183.078877,64.3866887 C181.452884,64.3866887 180.134756,65.6994233 180.134756,67.3187635 L180.134756,78.6131159 C180.134756,80.2324562 181.452884,81.5451908 183.078877,81.5451908 L194.12017,81.5451908 L194.12017,89.3311062 L179.444991,89.3311062 C174.830554,81.6023443 166.469399,76.865819 157.440634,76.865819 C148.411868,76.865819 140.050714,81.6023443 135.436276,89.3311062 L119.74832,89.3311062 L119.74832,19.0434074 L119.74832,19.0367055 Z M62.8241689,61.0709309 L62.8241689,43.8638401 L95.0799539,43.8638401 L95.0799539,61.0709309 L62.8241689,61.0709309 Z M95.0799539,37.9996903 L62.8241689,37.9996903 L62.8241689,5.86414974 L95.0799539,5.86414974 L95.0799539,37.9996903 Z M56.9359277,5.86414974 L56.9359277,37.9996903 L24.6683662,37.9996903 L24.6683662,5.86414974 L56.9359277,5.86414974 Z M24.6683662,43.8638401 L56.9359277,43.8638401 L56.9359277,61.0709309 L24.6683662,61.0709309 L24.6683662,43.8638401 Z M113.860079,66.9350806 L113.860079,89.3311062 L64.5670883,89.3311062 C59.952651,81.6023443 51.5914963,76.865819 42.5627311,76.865819 C33.5339658,76.865819 25.1728111,81.6023443 20.5583739,89.3311062 L5.88824164,89.3311062 L5.88824164,66.9350806 L113.860079,66.9350806 Z M5.88824164,109.760128 L5.88824164,95.1952559 L17.959136,95.1952559 C16.5332488,99.9475511 16.5414393,105.012432 17.982689,109.760128 L5.88824164,109.760128 Z M42.5635723,122.13516 C34.5613398,122.13516 27.3470903,117.334364 24.2849257,109.971449 C21.2227611,102.608534 22.9157465,94.1335574 28.5744199,88.4985154 C34.2330933,82.8634733 42.7430312,81.1781354 50.1359347,84.2283974 C57.5288381,87.2786594 62.348743,94.4638005 62.3480625,102.433292 C62.3397196,113.311321 53.4896509,122.128928 42.566937,122.141862 L42.5635723,122.13516 Z M67.1528673,109.760128 C68.594117,105.012432 68.6023075,99.9475511 67.1764203,95.1952559 L132.831992,95.1952559 C131.406104,99.9475511 131.414295,105.012432 132.855544,109.760128 L67.1528673,109.760128 Z M157.441475,122.141862 C146.515241,122.142787 137.656851,113.322641 137.655303,102.441111 C137.653755,91.5595807 146.509634,82.7369349 157.435868,82.7347755 C168.362102,82.732617 177.221495,91.5517624 177.224283,102.433292 C177.215938,113.311974 168.364846,122.129851 157.441475,122.141862 L157.441475,122.141862 Z M194.116805,109.76683 L182.022358,109.76683 C183.463608,105.019134 183.471798,99.954253 182.045911,95.2019578 L194.116805,95.2019578 L194.116805,109.76683 Z" id="Shape" fill="#000000" fill-rule="nonzero"></path>
                            <path d="M42.5,91 C36.1487254,91 31,96.1487254 31,102.5 C31,108.851275 36.1487254,114 42.5,114 C48.8512746,114 54,108.851275 54,102.5 C53.9934546,96.1514385 48.8485615,91.0065454 42.5,91 L42.5,91 Z M42.5,108.06085 C40.2500058,108.06085 38.2215924,106.705395 37.3607154,104.626606 C36.4998385,102.547817 36.9760573,100.155133 38.5672861,98.5643897 C40.1585149,96.9736462 42.5513433,96.4981572 44.62987,97.3596681 C46.7083966,98.2211791 48.0632323,100.250006 48.0625464,102.5 C48.059739,105.570671 45.570672,108.058979 42.5,108.06085 L42.5,108.06085 Z" id="Shape" fill="#000000" fill-rule="nonzero"></path>
                            <path d="M157.503561,91.0000005 C152.852004,90.9986287 148.657707,93.7996024 146.876682,98.0966861 C145.095658,102.39377 146.078697,107.340609 149.367359,110.630241 C152.656021,113.919873 157.60257,114.904372 161.900179,113.124616 C166.197788,111.344859 169,107.151389 169,102.499832 C168.992526,96.1530736 163.850317,91.009348 157.503561,91.0000005 Z M157.503561,108.060602 C155.253291,108.061973 153.223866,106.707409 152.361933,104.628759 C151.499999,102.550109 151.975373,100.156905 153.566312,98.5654808 C155.15725,96.9740569 157.55031,96.4979527 159.629222,97.359252 C161.708135,98.2205513 163.063319,100.249563 163.062633,102.499832 C163.057965,105.568362 160.572089,108.054996 157.503561,108.060602 L157.503561,108.060602 Z" id="Shape" fill="#000000" fill-rule="nonzero"></path>
                            <path d="M130.030909,68 L136.969091,68 C138.643016,68 140,66.6568542 140,65 C140,63.3431458 138.643016,62 136.969091,62 L130.030909,62 C128.356984,62 127,63.3431458 127,65 C127,66.6568542 128.356984,68 130.030909,68 Z" id="Path" fill="#000000" fill-rule="nonzero"></path>
                        </g>
                    </g>
                </g>
            </g>
        </g>
    </g>
</svg>